<svg width="40" height="40" viewBox="0 0 40 40" fill="none" xmlns="http://www.w3.org/2000/svg">
<mask id="mask0_16862_350" style="mask-type:luminance" maskUnits="userSpaceOnUse" x="0" y="0" width="40" height="40">
<path d="M0 0H40V40H0V0Z" fill="white"/>
</mask>
<g mask="url(#mask0_16862_350)">
<mask id="mask1_16862_350" style="mask-type:luminance" maskUnits="userSpaceOnUse" x="0" y="0" width="40" height="40">
<path d="M0 0H40V40H0V0Z" fill="white"/>
</mask>
<g mask="url(#mask1_16862_350)">
<path d="M27.4539 25.0001L20 32.4525L12.5461 25.0001C6.96094 25.2423 2.5 29.8126 2.5 35.4525C2.5 36.7083 2.94399 37.7802 3.83198 38.6681C4.71996 39.5561 5.79186 40.0001 7.04766 40.0001H32.9523C34.2081 40.0001 35.28 39.5561 36.168 38.6681C37.056 37.7802 37.5 36.7083 37.5 35.4525C37.5 29.8126 33.0391 25.2423 27.4539 25.0001ZM20 23.7501C22.7614 23.7501 25.1184 22.7738 27.0711 20.8212C29.0237 18.8686 30 16.5116 30 13.7501V5.14228C30.0006 4.62073 29.8526 4.14551 29.5558 3.71663C29.259 3.28776 28.8664 2.98172 28.3781 2.79853L21.7555 0.318054C21.1896 0.105855 20.6044 -0.000244141 20 -0.000244141C19.3956 -0.000244141 18.8104 0.105855 18.2445 0.318054L11.6219 2.80165C11.1341 2.98465 10.7418 3.29025 10.4451 3.71848C10.1484 4.1467 10 4.6213 10 5.14228V13.7501C10 16.5116 10.9763 18.8686 12.9289 20.8212C14.8816 22.7738 17.2386 23.7501 20 23.7501ZM16.875 5.59931C16.875 5.49144 16.9131 5.39937 16.9894 5.32309C17.0657 5.24682 17.1578 5.20868 17.2656 5.20868H18.9586V3.51571C18.9586 3.40785 18.9967 3.31578 19.073 3.2395C19.1493 3.16323 19.2414 3.12509 19.3492 3.12509H20.6508C20.7586 3.12509 20.8507 3.16323 20.927 3.2395C21.0033 3.31578 21.0414 3.40785 21.0414 3.51571V5.20868H22.7344C22.8422 5.20868 22.9343 5.24682 23.0106 5.32309C23.0869 5.39937 23.125 5.49144 23.125 5.59931V6.90087C23.125 7.00874 23.0869 7.10081 23.0106 7.17708C22.9343 7.25336 22.8422 7.2915 22.7344 7.2915H21.0414V8.98446C21.0414 9.09233 21.0033 9.1844 20.927 9.26068C20.8507 9.33695 20.7586 9.37509 20.6508 9.37509H19.3492C19.2414 9.37509 19.1493 9.33695 19.073 9.26068C18.9967 9.1844 18.9586 9.09233 18.9586 8.98446V7.2915H17.2656C17.1578 7.2915 17.0657 7.25336 16.9894 7.17708C16.9131 7.10081 16.875 7.00874 16.875 6.90087V5.59931ZM13.75 12.5001H26.25V13.7501C26.2494 15.4756 25.639 16.9483 24.4187 18.1682C23.1984 19.388 21.7255 19.998 20 19.998C18.2745 19.998 16.8016 19.388 15.5813 18.1682C14.361 16.9483 13.7506 15.4756 13.75 13.7501V12.5001Z" fill="#0B477B"/>
</g>
</g>
</svg>
