<svg width="30" height="40" viewBox="0 0 30 40" fill="none" xmlns="http://www.w3.org/2000/svg">
<path d="M26.25 5H20C20 2.24219 17.7578 0 15 0C12.2422 0 10 2.24219 10 5H3.75C1.67969 5 0 6.67969 0 8.75V36.25C0 38.3203 1.67969 40 3.75 40H26.25C28.3203 40 30 38.3203 30 36.25V8.75C30 6.67969 28.3203 5 26.25 5ZM7.5 33.125C6.46094 33.125 5.625 32.2891 5.625 31.25C5.625 30.2109 6.46094 29.375 7.5 29.375C8.53906 29.375 9.375 30.2109 9.375 31.25C9.375 32.2891 8.53906 33.125 7.5 33.125ZM7.5 25.625C6.46094 25.625 5.625 24.7891 5.625 23.75C5.625 22.7109 6.46094 21.875 7.5 21.875C8.53906 21.875 9.375 22.7109 9.375 23.75C9.375 24.7891 8.53906 25.625 7.5 25.625ZM7.5 18.125C6.46094 18.125 5.625 17.2891 5.625 16.25C5.625 15.2109 6.46094 14.375 7.5 14.375C8.53906 14.375 9.375 15.2109 9.375 16.25C9.375 17.2891 8.53906 18.125 7.5 18.125ZM15 3.125C16.0391 3.125 16.875 3.96094 16.875 5C16.875 6.03906 16.0391 6.875 15 6.875C13.9609 6.875 13.125 6.03906 13.125 5C13.125 3.96094 13.9609 3.125 15 3.125ZM25 31.875C25 32.2188 24.7188 32.5 24.375 32.5H13.125C12.7812 32.5 12.5 32.2188 12.5 31.875V30.625C12.5 30.2812 12.7812 30 13.125 30H24.375C24.7188 30 25 30.2812 25 30.625V31.875ZM25 24.375C25 24.7188 24.7188 25 24.375 25H13.125C12.7812 25 12.5 24.7188 12.5 24.375V23.125C12.5 22.7812 12.7812 22.5 13.125 22.5H24.375C24.7188 22.5 25 22.7812 25 23.125V24.375ZM25 16.875C25 17.2188 24.7188 17.5 24.375 17.5H13.125C12.7812 17.5 12.5 17.2188 12.5 16.875V15.625C12.5 15.2812 12.7812 15 13.125 15H24.375C24.7188 15 25 15.2812 25 15.625V16.875Z" fill="#0B477B"/>
</svg>
