<svg width="41" height="29" viewBox="0 0 41 29" fill="none" xmlns="http://www.w3.org/2000/svg">
<path d="M20.1367 8.12707L7.33323 17.5005V27.6172C7.33323 27.8899 7.44171 28.1227 7.65867 28.3156C7.87562 28.5084 8.13752 28.6048 8.44434 28.6048L16.2262 28.5869C16.532 28.5856 16.7927 28.4886 17.0083 28.2959C17.224 28.1033 17.3318 27.8711 17.3318 27.5993V21.6913C17.3318 21.4185 17.4403 21.1857 17.6572 20.9929C17.8742 20.8 18.1361 20.7036 18.4429 20.7036H22.8874C23.1942 20.7036 23.4561 20.8 23.673 20.9929C23.89 21.1857 23.9985 21.4185 23.9985 21.6913V27.595C23.9975 27.8683 24.1056 28.1018 24.3227 28.2953C24.5398 28.4889 24.8021 28.5857 25.1096 28.5857L32.8887 28.6048C33.1956 28.6048 33.4575 28.5084 33.6744 28.3156C33.8914 28.1227 33.9999 27.8899 33.9999 27.6172V17.4937L21.1992 8.12707C21.0441 8.01599 20.867 7.96044 20.6679 7.96044C20.4688 7.96044 20.2917 8.01599 20.1367 8.12707ZM40.361 14.498L34.5554 10.2444V1.69435C34.5554 1.4898 34.4741 1.31521 34.3113 1.17057C34.1486 1.02593 33.9522 0.953613 33.7221 0.953613H29.8332C29.6031 0.953613 29.4067 1.02593 29.2439 1.17057C29.0812 1.31521 28.9999 1.4898 28.9999 1.69435V6.17645L22.7825 1.62954C22.1672 1.1795 21.4612 0.954486 20.6644 0.954486C19.8677 0.954486 19.1616 1.1795 18.5464 1.62954L0.967951 14.498C0.790503 14.6284 0.69093 14.7955 0.669231 14.9992C0.647533 15.2029 0.710069 15.3836 0.85684 15.5413L2.62767 17.4548C2.77406 17.6131 2.96195 17.702 3.19135 17.7217C3.42075 17.7413 3.62429 17.6859 3.80198 17.5555L20.1367 5.5962C20.2917 5.48512 20.4688 5.42958 20.6679 5.42958C20.867 5.42958 21.0441 5.48512 21.1992 5.5962L37.5346 17.5555C37.7119 17.6859 37.9152 17.7415 38.1444 17.7222C38.3736 17.7029 38.5615 17.6144 38.7082 17.4567L40.479 15.5431C40.6257 15.3845 40.6875 15.203 40.6644 14.9988C40.6413 14.7945 40.5402 14.6276 40.361 14.498Z" fill="#0B477B"/>
</svg>
