<svg width="40" height="28" viewBox="0 0 40 28" fill="none" xmlns="http://www.w3.org/2000/svg">
<path d="M6 12C8.20625 12 10 10.2063 10 8C10 5.79375 8.20625 4 6 4C3.79375 4 2 5.79375 2 8C2 10.2063 3.79375 12 6 12ZM34 12C36.2062 12 38 10.2063 38 8C38 5.79375 36.2062 4 34 4C31.7938 4 30 5.79375 30 8C30 10.2063 31.7938 12 34 12ZM36 14H32C30.9 14 29.9062 14.4438 29.1812 15.1625C31.7 16.5438 33.4875 19.0375 33.875 22H38C39.1063 22 40 21.1063 40 20V18C40 15.7937 38.2062 14 36 14ZM20 14C23.8687 14 27 10.8687 27 7C27 3.13125 23.8687 0 20 0C16.1313 0 13 3.13125 13 7C13 10.8687 16.1313 14 20 14ZM24.8 16H24.2812C22.9813 16.625 21.5375 17 20 17C18.4625 17 17.025 16.625 15.7188 16H15.2C11.225 16 8 19.225 8 23.2V25C8 26.6562 9.34375 28 11 28H29C30.6562 28 32 26.6562 32 25V23.2C32 19.225 28.775 16 24.8 16ZM10.8187 15.1625C10.0938 14.4438 9.1 14 8 14H4C1.79375 14 0 15.7937 0 18V20C0 21.1063 0.89375 22 2 22H6.11875C6.5125 19.0375 8.3 16.5438 10.8187 15.1625Z" fill="#0B477B"/>
</svg>
