<svg width="40" height="20" viewBox="0 0 40 20" fill="none" xmlns="http://www.w3.org/2000/svg">
<path d="M27.1688 0.399902H21.8C21.3 0.399902 20.8188 0.549902 20.45 0.819902L14.3063 5.3199C14.3 5.3249 14.2938 5.3349 14.2875 5.3399C13.25 6.1199 13.2688 7.3649 14.1562 8.1399C14.95 8.8349 16.6187 9.0199 17.6625 8.2749C17.6688 8.2699 17.6812 8.2699 17.6875 8.2649L22.6812 4.6049C23.0875 4.3099 23.725 4.3299 24.0938 4.6549C24.4688 4.9799 24.4375 5.4849 24.0312 5.7849L22.4 6.9799L31.5 12.8899C31.6812 13.0099 31.8438 13.1399 31.9937 13.2749V3.5999L28.5812 0.869902C28.2125 0.569902 27.7 0.399902 27.1688 0.399902ZM34 3.6099V14.8049C34 15.6899 34.8937 16.4049 36 16.4049H40V3.6099H34ZM37 14.8049C36.45 14.8049 36 14.4449 36 14.0049C36 13.5649 36.45 13.2049 37 13.2049C37.55 13.2049 38 13.5649 38 14.0049C38 14.4449 37.55 14.8049 37 14.8049ZM0 16.3999H4C5.10625 16.3999 6 15.6849 6 14.7999V3.6099H0V16.3999ZM3 13.2049C3.55 13.2049 4 13.5649 4 14.0049C4 14.4449 3.55 14.8049 3 14.8049C2.45 14.8049 2 14.4449 2 14.0049C2 13.5599 2.45 13.2049 3 13.2049ZM30.2437 14.1349L20.9125 8.0749L19.0375 9.4499C17.1812 10.8049 14.3375 10.6749 12.6813 9.2299C11 7.7599 11.1313 5.4849 12.9563 4.1449L18.0688 0.399902H12.8313C12.3 0.399902 11.7937 0.569902 11.4187 0.869902L8 3.5999V14.7949H9.14375L14.8 18.8899C16.5125 20.0049 19.0312 19.7949 20.425 18.4249L20.4375 18.4149L21.5562 19.1899C22.55 19.8399 24.0187 19.7149 24.825 18.9199L26.7875 16.9899L27.125 17.2099C27.9812 17.7649 29.2437 17.6649 29.9375 16.9749L30.5312 16.3899C31.2312 15.6999 31.1 14.6949 30.2437 14.1349Z" fill="#0B477B"/>
</svg>
