<svg width="30" height="40" viewBox="0 0 30 40" fill="none" xmlns="http://www.w3.org/2000/svg">
<path d="M7.58765 28.3304C6.90875 27.6515 7.26266 27.8429 5.62515 27.4046C4.88219 27.2054 4.22906 26.8226 3.63844 26.364L0.0939042 35.0546C-0.249064 35.896 0.391561 36.8101 1.29937 36.7757L5.41578 36.6187L8.24703 39.6093C8.87203 40.2687 9.9689 40.0632 10.3119 39.2218L14.3783 29.2515C13.5314 29.7234 12.5916 29.9999 11.6197 29.9999C10.0962 29.9999 8.665 29.407 7.58765 28.3304ZM29.9064 35.0546L26.3619 26.364C25.7712 26.8234 25.1181 27.2054 24.3752 27.4046C22.7291 27.8452 23.09 27.6531 22.4127 28.3304C21.3353 29.407 19.9033 29.9999 18.3798 29.9999C17.408 29.9999 16.4681 29.7226 15.6212 29.2515L19.6877 39.2218C20.0306 40.0632 21.1283 40.2687 21.7525 39.6093L24.5845 36.6187L28.7009 36.7757C29.6087 36.8101 30.2494 35.8952 29.9064 35.0546ZM20.547 26.5624C21.7408 25.3476 21.8775 25.4523 23.5775 24.989C24.6627 24.6929 25.5111 23.8296 25.8017 22.7249C26.3861 20.5062 26.2345 20.7741 27.8291 19.1507C28.6236 18.3421 28.9338 17.1632 28.6431 16.0585C28.0595 13.8413 28.0588 14.1507 28.6431 11.9312C28.9338 10.8265 28.6236 9.64756 27.8291 8.83896C26.2345 7.21552 26.3861 7.48271 25.8017 5.26474C25.5111 4.16006 24.6627 3.29677 23.5775 3.00068C21.3994 2.40615 21.6619 2.56162 20.0658 0.937397C19.2712 0.128803 18.1127 -0.187603 17.0275 0.108491C14.8502 0.702241 15.1541 0.703022 12.9728 0.108491C11.8877 -0.187603 10.7291 0.128022 9.93453 0.937397C8.34 2.56084 8.6025 2.40615 6.42359 3.00068C5.33843 3.29677 4.49 4.16006 4.19937 5.26474C3.61578 7.48271 3.76656 7.21552 2.17203 8.83896C1.3775 9.64756 1.06656 10.8265 1.35797 11.9312C1.94156 14.1468 1.94234 13.8374 1.35797 16.0577C1.06734 17.1624 1.3775 18.3413 2.17203 19.1507C3.76656 20.7741 3.615 20.5062 4.19937 22.7249C4.49 23.8296 5.33843 24.6929 6.42359 24.989C8.17203 25.4656 8.3025 25.3906 9.45328 26.5624C10.4869 27.6148 12.097 27.8031 13.3392 27.0171C13.8462 26.6952 14.4 26.5343 15.0005 26.5343C15.6011 26.5343 16.1549 26.6952 16.6619 27.0171C17.9033 27.8031 19.5134 27.6148 20.547 26.5624ZM7.62984 13.7468C7.62984 9.60381 10.9298 6.24522 15.0002 6.24522C19.0705 6.24522 22.3705 9.60381 22.3705 13.7468C22.3705 17.8898 19.0705 21.2484 15.0002 21.2484C10.9298 21.2484 7.62984 17.8898 7.62984 13.7468Z" fill="#0B477B"/>
</svg>
