<svg width="48" height="43" viewBox="0 0 48 43" fill="none" xmlns="http://www.w3.org/2000/svg">
<mask id="mask0_16862_215" style="mask-type:luminance" maskUnits="userSpaceOnUse" x="0" y="0" width="48" height="43">
<path d="M0 0H48V42.6667H0V0Z" fill="white"/>
</mask>
<g mask="url(#mask0_16862_215)">
<mask id="mask1_16862_215" style="mask-type:luminance" maskUnits="userSpaceOnUse" x="0" y="0" width="48" height="43">
<path d="M0 0H48V42.6667H0V0Z" fill="white"/>
</mask>
<g mask="url(#mask1_16862_215)">
<path d="M23.364 13.3525L7.99988 24.6007V36.7407C7.99988 37.068 8.13005 37.3473 8.3904 37.5787C8.65075 37.8102 8.96502 37.9259 9.33321 37.9259L18.6715 37.9044C19.0384 37.9028 19.3512 37.7864 19.61 37.5552C19.8688 37.324 19.9982 37.0453 19.9982 36.7192V29.6296C19.9982 29.3023 20.1283 29.023 20.3887 28.7915C20.649 28.5601 20.9633 28.4444 21.3315 28.4444H26.6648C27.033 28.4444 27.3473 28.5601 27.6076 28.7915C27.868 29.023 27.9982 29.3023 27.9982 29.6296V36.714C27.997 37.042 28.1267 37.3222 28.3872 37.5545C28.6477 37.7868 28.9625 37.9029 29.3315 37.9029L38.6665 37.9259C39.0347 37.9259 39.349 37.8102 39.6093 37.5787C39.8697 37.3473 39.9998 37.068 39.9998 36.7407V24.5925L24.639 13.3525C24.453 13.2192 24.2405 13.1526 24.0015 13.1526C23.7625 13.1526 23.55 13.2192 23.364 13.3525ZM47.6332 20.9977L40.6665 15.8933V5.63327C40.6665 5.38781 40.5689 5.1783 40.3736 5.00473C40.1783 4.83117 39.9426 4.74438 39.6665 4.74438H34.9998C34.7237 4.74438 34.488 4.83117 34.2927 5.00473C34.0975 5.1783 33.9998 5.38781 33.9998 5.63327V11.0118L26.539 5.5555C25.8007 5.01545 24.9535 4.74543 23.9973 4.74543C23.0412 4.74543 22.194 5.01545 21.4557 5.5555L0.361541 20.9977C0.148603 21.1542 0.0291155 21.3546 0.00307737 21.5991C-0.0229608 21.8436 0.0520826 22.0604 0.228208 22.2496L2.35321 24.5459C2.52887 24.7357 2.75434 24.8425 3.02962 24.8661C3.3049 24.8896 3.54915 24.8232 3.76238 24.6666L23.364 10.3155C23.55 10.1822 23.7625 10.1155 24.0015 10.1155C24.2405 10.1155 24.453 10.1822 24.639 10.3155L44.2415 24.6666C44.4543 24.8232 44.6983 24.8899 44.9733 24.8667C45.2483 24.8436 45.4738 24.7374 45.6498 24.5481L47.7748 22.2518C47.9508 22.0615 48.025 21.8437 47.9973 21.5986C47.9696 21.3535 47.8482 21.1532 47.6332 20.9977Z" fill="#0B477B"/>
</g>
</g>
</svg>
