<svg width="48" height="43" viewBox="0 0 48 43" fill="none" xmlns="http://www.w3.org/2000/svg">
<g clip-path="url(#clip0_16862_244)">
<mask id="mask0_16862_244" style="mask-type:luminance" maskUnits="userSpaceOnUse" x="0" y="0" width="48" height="43">
<path d="M0 0H48V42.6667H0V0Z" fill="white"/>
</mask>
<g mask="url(#mask0_16862_244)">
<mask id="mask1_16862_244" style="mask-type:luminance" maskUnits="userSpaceOnUse" x="0" y="0" width="48" height="43">
<path d="M0 0H48V42.6667H0V0Z" fill="white"/>
</mask>
<g mask="url(#mask1_16862_244)">
<path d="M45.5165 3.08892C45.0498 2.163 43.7165 2.12596 43.1582 3.00003C40.5748 6.99262 35.9498 9.48151 30.6665 9.48151H23.9998C15.1665 9.48151 7.99983 15.8519 7.99983 23.7038C7.99983 24.2223 8.0665 24.7186 8.12483 25.2223C13.4415 21.8371 21.1165 18.963 31.9998 18.963C32.7332 18.963 33.3332 19.4964 33.3332 20.1482C33.3332 20.8001 32.7332 21.3334 31.9998 21.3334C11.0498 21.3334 2.1665 32.7482 0.199835 37.0371C-0.350165 38.2445 0.299834 39.6223 1.65816 40.1186C3.02483 40.6223 4.57483 40.0371 5.1415 38.8371C5.2665 38.5704 6.88316 35.289 11.1332 32.126C13.8332 35.3779 18.9665 38.4816 25.7082 37.8445C38.7915 37.0001 47.9998 26.5704 47.9998 13.8001C47.9998 10.0815 47.0998 6.22966 45.5165 3.08892Z" fill="#0B477B"/>
</g>
</g>
</g>
<defs>
<clipPath id="clip0_16862_244">
<rect width="48" height="42.6667" fill="white"/>
</clipPath>
</defs>
</svg>
