<svg width="15" height="15" viewBox="0 0 15 15" fill="none" xmlns="http://www.w3.org/2000/svg">
<path d="M3.81804 14.1668H1.05374V5.26484H3.81804V14.1668ZM2.4344 4.05053C1.55047 4.05053 0.833496 3.31837 0.833496 2.43442C0.833496 1.55026 1.55025 0.833496 2.4344 0.833496C3.31856 0.833496 4.03531 1.55026 4.03531 2.43442C4.03531 3.31837 3.31804 4.05053 2.4344 4.05053ZM14.164 14.1668H11.4056V9.8334C11.4056 8.80064 11.3848 7.4762 9.96838 7.4762C8.53117 7.4762 8.31093 8.59825 8.31093 9.75899V14.1668H5.5496V5.26484H8.20081V6.47916H8.2395C8.60855 5.77974 9.51005 5.04163 10.855 5.04163C13.6526 5.04163 14.1669 6.88393 14.1669 9.27684V14.1668H14.164Z" fill="white"/>
</svg>
