<svg width="48" height="43" viewBox="0 0 48 43" fill="none" xmlns="http://www.w3.org/2000/svg">
<mask id="mask0_16960_12139" style="mask-type:luminance" maskUnits="userSpaceOnUse" x="0" y="0" width="48" height="43">
<path d="M0 0H48V42.6667H0V0Z" fill="white"/>
</mask>
<g mask="url(#mask0_16960_12139)">
<path d="M9.33333 4.74023C4.175 4.74023 0 8.45134 0 13.0365V29.6291C0 34.2143 4.175 37.9254 9.33333 37.9254C14.4917 37.9254 18.6667 34.2143 18.6667 29.6291V13.0365C18.6667 8.45134 14.4917 4.74023 9.33333 4.74023ZM13.3333 21.3328H5.33333V13.0365C5.33333 11.0736 7.125 9.48097 9.33333 9.48097C11.5417 9.48097 13.3333 11.0736 13.3333 13.0365V21.3328ZM24.975 19.1328C24.6833 18.8735 24.1917 18.9032 23.95 19.1921C20.175 23.8217 20.5833 30.3106 25.275 34.4809C29.9667 38.6513 37.2667 39.0143 42.475 35.6587C42.8083 35.4439 42.8333 35.0069 42.5417 34.7476L24.975 19.1328ZM44.125 17.7254C39.4333 13.5551 32.1333 13.1921 26.925 16.5476C26.5917 16.7624 26.5667 17.1995 26.8583 17.4587L44.425 33.0735C44.7167 33.3328 45.2083 33.3032 45.45 33.0143C49.225 28.3772 48.825 21.8958 44.125 17.7254Z" fill="#2B4C7E"/>
</g>
</svg>
