<svg width="49" height="48" viewBox="0 0 49 48" fill="none" xmlns="http://www.w3.org/2000/svg">
<mask id="mask0_16960_12168" style="mask-type:luminance" maskUnits="userSpaceOnUse" x="0" y="0" width="49" height="48">
<path d="M0.333984 0H48.334V48H0.333984V0Z" fill="white"/>
</mask>
<g mask="url(#mask0_16960_12168)">
<path d="M24.3246 1.42513C24.3996 1.86576 25.834 10.2845 25.834 13.5001C25.834 18.4033 23.2277 21.9001 19.3746 23.3064L20.584 45.6283C20.6496 46.9126 19.6278 48.0001 18.334 48.0001H12.334C11.0496 48.0001 10.0184 46.922 10.084 45.6283L11.2934 23.3064C7.43086 21.9001 4.83398 18.3939 4.83398 13.5001C4.83398 10.2751 6.26836 1.86576 6.34336 1.42513C6.64336 -0.477991 10.5902 -0.506116 10.834 1.52826V14.7658C10.9559 15.0845 12.2496 15.0658 12.334 14.7658C12.4652 12.3939 13.0746 1.71576 13.084 1.47201C13.3934 -0.477991 17.2746 -0.477991 17.5746 1.47201C17.5934 1.72513 18.1934 12.3939 18.3246 14.7658C18.409 15.0658 19.7121 15.0845 19.8246 14.7658V1.52826C20.0684 -0.496741 24.0246 -0.477991 24.3246 1.42513ZM35.4996 28.2095L34.0934 45.5626C33.9809 46.8751 35.0215 48.0001 36.334 48.0001H41.584C42.8309 48.0001 43.834 46.997 43.834 45.7501V2.25013C43.834 1.01263 42.8309 0.00013423 41.584 0.00013423C33.8496 0.00013423 20.8277 16.7345 35.4996 28.2095Z" fill="#2B4C7E"/>
</g>
</svg>
