<svg width="49" height="43" viewBox="0 0 49 43" fill="none" xmlns="http://www.w3.org/2000/svg">
<mask id="mask0_16960_12208" style="mask-type:luminance" maskUnits="userSpaceOnUse" x="0" y="0" width="49" height="43">
<path d="M0.333984 0H48.334V42.6667H0.333984V0Z" fill="white"/>
</mask>
<g mask="url(#mask0_16960_12208)">
<mask id="mask1_16960_12208" style="mask-type:luminance" maskUnits="userSpaceOnUse" x="0" y="0" width="49" height="43">
<path d="M0.333984 0H48.334V42.6667H0.333984V0Z" fill="white"/>
</mask>
<g mask="url(#mask1_16960_12208)">
<path d="M23.2757 20.9263C23.859 21.4744 24.809 21.4744 25.4007 20.9263L34.4757 12.467C37.109 10.0078 36.959 5.9337 34.009 3.66703C31.4423 1.68926 27.6173 2.04481 25.2673 4.2374L24.334 5.10407L23.409 4.24481C21.059 2.04481 17.234 1.68926 14.6673 3.66703C11.7257 5.9337 11.5673 10.0078 14.2007 12.467L23.2757 20.9263ZM47.4423 26.6744C46.459 25.8818 44.9257 25.9337 43.8923 26.6744L36.1923 32.1485C35.2507 32.8226 34.0757 33.1855 32.859 33.1855H23.0007C22.2673 33.1855 21.6673 32.6522 21.6673 32.0003C21.6673 31.3485 22.2673 30.8151 23.0007 30.8151H29.5257C30.8507 30.8151 32.084 30.0077 32.3007 28.8448C32.5757 27.3633 31.2923 26.0744 29.6673 26.0744H16.334C14.084 26.0744 11.909 26.7633 10.159 28.0226L6.28398 30.8151H1.66731C0.933984 30.8151 0.333984 31.3485 0.333984 32.0003V39.1114C0.333984 39.7633 0.933984 40.2966 1.66731 40.2966H31.4007C32.609 40.2966 33.784 39.9337 34.734 39.2596L47.334 30.2966C48.6007 29.4003 48.7007 27.6818 47.4423 26.6744Z" fill="#2B4C7E"/>
</g>
</g>
</svg>
