<svg width="49" height="49" viewBox="0 0 49 49" fill="none" xmlns="http://www.w3.org/2000/svg">
<mask id="mask0_16960_12236" style="mask-type:luminance" maskUnits="userSpaceOnUse" x="0" y="0" width="49" height="49">
<path d="M0.666016 0H48.5618V48.4H0.666016V0Z" fill="white"/>
</mask>
<g mask="url(#mask0_16960_12236)">
<mask id="mask1_16960_12236" style="mask-type:luminance" maskUnits="userSpaceOnUse" x="0" y="0" width="49" height="49">
<path d="M0.666016 0H48.5618V48.4H0.666016V0Z" fill="white"/>
</mask>
<g mask="url(#mask1_16960_12236)">
<path d="M7.85039 21.7827C10.4921 21.7827 12.64 19.6123 12.64 16.9427C12.64 14.2731 10.4921 12.1027 7.85039 12.1027C5.20864 12.1027 3.06081 14.2731 3.06081 16.9427C3.06081 19.6123 5.20864 21.7827 7.85039 21.7827ZM41.3775 21.7827C44.0192 21.7827 46.1671 19.6123 46.1671 16.9427C46.1671 14.2731 44.0192 12.1027 41.3775 12.1027C38.7357 12.1027 36.5879 14.2731 36.5879 16.9427C36.5879 19.6123 38.7357 21.7827 41.3775 21.7827ZM43.7723 24.2027H38.9827C37.6655 24.2027 36.4756 24.7396 35.6075 25.6093C38.6235 27.2806 40.7638 30.2981 41.2278 33.8827H46.1671C47.4917 33.8827 48.5618 32.8013 48.5618 31.4627V29.0427C48.5618 26.3731 46.414 24.2027 43.7723 24.2027ZM24.6139 24.2027C29.2464 24.2027 32.9957 20.4139 32.9957 15.7327C32.9957 11.0515 29.2464 7.2627 24.6139 7.2627C19.9815 7.2627 16.2322 11.0515 16.2322 15.7327C16.2322 20.4139 19.9815 24.2027 24.6139 24.2027ZM30.3614 26.6227H29.7403C28.1837 27.3789 26.4549 27.8327 24.6139 27.8327C22.7729 27.8327 21.0517 27.3789 19.4876 26.6227H18.8664C14.1068 26.6227 10.2452 30.5249 10.2452 35.3347V37.5127C10.2452 39.5168 11.8542 41.1427 13.8374 41.1427H35.3905C37.3737 41.1427 38.9827 39.5168 38.9827 37.5127V35.3347C38.9827 30.5249 35.1211 26.6227 30.3614 26.6227ZM13.6203 25.6093C12.7522 24.7396 11.5623 24.2027 10.2452 24.2027H5.4556C2.81384 24.2027 0.666016 26.3731 0.666016 29.0427V31.4627C0.666016 32.8013 1.73619 33.8827 3.06081 33.8827H7.99258C8.46406 30.2981 10.6044 27.2806 13.6203 25.6093Z" fill="#2B4C7E"/>
</g>
</g>
</svg>
