<svg width="48" height="39" viewBox="0 0 48 39" fill="none" xmlns="http://www.w3.org/2000/svg">
<mask id="mask0_16960_12182" style="mask-type:luminance" maskUnits="userSpaceOnUse" x="0" y="0" width="48" height="39">
<path d="M0 0H48V38.4H0V0Z" fill="white"/>
</mask>
<g mask="url(#mask0_16960_12182)">
<path d="M36.0054 9.59961H12.0001C7.71096 9.59912 4.3792 11.0277 2.00483 13.8852C-0.369552 16.7428 -0.726293 19.7534 0.9346 22.917C2.5955 26.0806 5.53237 27.9846 9.74523 28.6289C13.9581 29.2731 17.5657 28.37 20.5681 25.9196H27.4321C30.4341 28.3697 34.0413 29.2729 38.2537 28.6291C42.4661 27.9852 45.4031 26.0819 47.0646 22.919C48.7261 19.7561 48.3705 16.7457 45.9976 13.8879C43.6247 11.03 40.294 9.60062 36.0054 9.59961ZM18.6001 19.9196C18.6001 20.1184 18.5123 20.2881 18.3365 20.4287C18.1608 20.5693 17.9486 20.6396 17.7001 20.6396H13.8001V23.7596C13.8001 23.9584 13.7123 24.1281 13.5365 24.2687C13.3608 24.4093 13.1486 24.4796 12.9001 24.4796H11.1001C10.8516 24.4796 10.6395 24.4093 10.4637 24.2687C10.288 24.1281 10.2001 23.9584 10.2001 23.7596V20.6396H6.3001C6.05157 20.6396 5.83944 20.5693 5.6637 20.4287C5.48797 20.2881 5.4001 20.1184 5.4001 19.9196V18.4796C5.4001 18.2808 5.48797 18.1111 5.66371 17.9705C5.83944 17.8299 6.05157 17.7596 6.3001 17.7596H10.2001V14.6396C10.2001 14.4408 10.288 14.2711 10.4637 14.1305C10.6395 13.9899 10.8516 13.9196 11.1001 13.9196H12.9001C13.1486 13.9196 13.3608 13.9899 13.5365 14.1305C13.7123 14.2711 13.8001 14.4408 13.8001 14.6396V17.7596H17.7001C17.9486 17.7596 18.1608 17.8299 18.3365 17.9705C18.5123 18.1111 18.6001 18.2808 18.6001 18.4796V19.9196ZM34.8001 24.4796C33.9717 24.4796 33.2646 24.2453 32.6788 23.7767C32.093 23.308 31.8001 22.7423 31.8001 22.0796C31.8001 21.4169 32.093 20.8512 32.6788 20.3825C33.2646 19.9139 33.9717 19.6796 34.8001 19.6796C35.6285 19.6796 36.3357 19.9139 36.9214 20.3825C37.5072 20.8512 37.8001 21.4169 37.8001 22.0796C37.8001 22.7423 37.5072 23.308 36.9214 23.7767C36.3357 24.2453 35.6285 24.4796 34.8001 24.4796ZM39.6001 18.7196C38.7717 18.7196 38.0646 18.4853 37.4788 18.0167C36.893 17.548 36.6001 16.9823 36.6001 16.3196C36.6001 15.6569 36.893 15.0912 37.4788 14.6225C38.0646 14.1539 38.7717 13.9196 39.6001 13.9196C40.4285 13.9196 41.1357 14.1539 41.7214 14.6225C42.3072 15.0912 42.6001 15.6569 42.6001 16.3196C42.6001 16.9823 42.3072 17.548 41.7214 18.0167C41.1357 18.4853 40.4285 18.7196 39.6001 18.7196Z" fill="#2B4C7E"/>
</g>
</svg>
