<svg width="49" height="48" viewBox="0 0 49 48" fill="none" xmlns="http://www.w3.org/2000/svg">
<mask id="mask0_16960_12154" style="mask-type:luminance" maskUnits="userSpaceOnUse" x="0" y="0" width="49" height="48">
<path d="M0.666016 0H48.666V48H0.666016V0Z" fill="white"/>
</mask>
<g mask="url(#mask0_16960_12154)">
<path d="M24.666 24C31.2941 24 36.666 18.6281 36.666 12C36.666 5.37188 31.2941 0 24.666 0C18.0379 0 12.666 5.37188 12.666 12C12.666 18.6281 18.0379 24 24.666 24ZM13.416 39.75C13.416 40.9969 14.4191 42 15.666 42C16.9129 42 17.916 40.9969 17.916 39.75C17.916 38.5031 16.9129 37.5 15.666 37.5C14.4191 37.5 13.416 38.5031 13.416 39.75ZM33.666 27.0563V31.65C37.0879 32.3438 39.666 35.3812 39.666 39V42.9094C39.666 43.6219 39.1598 44.2406 38.4566 44.3813L35.4379 44.9813C35.0347 45.0656 34.641 44.8031 34.5566 44.3906L34.266 42.9188C34.1816 42.5156 34.4441 42.1125 34.8566 42.0375L36.666 41.6719V39C36.666 33.1125 27.666 32.8969 27.666 39.1781V41.6813L29.4754 42.0469C29.8785 42.1312 30.141 42.525 30.066 42.9281L29.7754 44.4C29.691 44.8031 29.2972 45.0656 28.8941 44.9906L25.9691 44.5969C25.2285 44.4937 24.6754 43.8656 24.6754 43.1062V39C24.6754 35.3812 27.2535 32.3531 30.6754 31.65V27.4125C30.4691 27.4781 30.2629 27.5156 30.0566 27.5906C28.3691 28.1812 26.5597 28.5094 24.6754 28.5094C22.791 28.5094 20.9816 28.1812 19.2941 27.5906C18.6004 27.3469 17.8972 27.1969 17.1754 27.1031V34.7531C19.341 35.4 20.9254 37.3875 20.9254 39.7594C20.9254 42.6562 18.5722 45.0094 15.6754 45.0094C12.7785 45.0094 10.4254 42.6562 10.4254 39.7594C10.4254 37.3875 12.0098 35.4 14.1754 34.7531V27.2156C8.2129 28.2188 3.66602 33.3562 3.66602 39.6V43.8C3.66602 46.1156 5.55039 48 7.86602 48H41.466C43.7816 48 45.666 46.1156 45.666 43.8V39.6C45.666 32.85 40.341 27.3844 33.666 27.0563Z" fill="#2B4C7E"/>
</g>
</svg>
