<svg width="49" height="48" viewBox="0 0 49 48" fill="none" xmlns="http://www.w3.org/2000/svg">
<mask id="mask0_16960_12196" style="mask-type:luminance" maskUnits="userSpaceOnUse" x="0" y="0" width="49" height="48">
<path d="M0.666016 0H48.666V48H0.666016V0Z" fill="white"/>
</mask>
<g mask="url(#mask0_16960_12196)">
<path d="M46.416 12H45.666V7.5C45.666 3.3 36.366 0 24.666 0C12.966 0 3.66602 3.3 3.66602 7.5V12H2.91602C1.67383 12 0.666016 13.0069 0.666016 14.25V21.75C0.666016 22.9922 1.67383 24 2.91602 24H3.66602V39C3.66602 40.6566 5.00946 42 6.66602 42V45C6.66602 46.6566 8.00946 48 9.66602 48H12.666C14.3226 48 15.666 46.6566 15.666 45V42H33.666V45C33.666 46.6566 35.0094 48 36.666 48H39.666C41.3226 48 42.666 46.6566 42.666 45V42H43.266C44.766 42 45.666 40.8 45.666 39.6V24H46.416C47.6582 24 48.666 22.9922 48.666 21.75V14.25C48.666 13.0069 47.6582 12 46.416 12ZM11.166 37.5C9.50946 37.5 8.16602 36.1566 8.16602 34.5C8.16602 32.8434 9.50946 31.5 11.166 31.5C12.8226 31.5 14.166 32.8434 14.166 34.5C14.166 36.1566 12.8226 37.5 11.166 37.5ZM12.666 27C11.0094 27 9.66602 25.6566 9.66602 24V12C9.66602 10.3434 11.0094 9 12.666 9H36.666C38.3226 9 39.666 10.3434 39.666 12V24C39.666 25.6566 38.3226 27 36.666 27H12.666ZM38.166 37.5C36.5094 37.5 35.166 36.1566 35.166 34.5C35.166 32.8434 36.5094 31.5 38.166 31.5C39.8226 31.5 41.166 32.8434 41.166 34.5C41.166 36.1566 39.8226 37.5 38.166 37.5Z" fill="#2B4C7E"/>
</g>
</svg>
