<svg width="24" height="24" viewBox="0 0 24 24" fill="none" xmlns="http://www.w3.org/2000/svg">
<mask id="mask0_16960_12020" style="mask-type:luminance" maskUnits="userSpaceOnUse" x="0" y="0" width="24" height="24">
<path d="M0 0H24V24H0V0Z" fill="white"/>
</mask>
<g mask="url(#mask0_16960_12020)">
<mask id="mask1_16960_12020" style="mask-type:luminance" maskUnits="userSpaceOnUse" x="0" y="1" width="24" height="22">
<path d="M0 1H24V22.3333H0V1Z" fill="white"/>
</mask>
<g mask="url(#mask1_16960_12020)">
<mask id="mask2_16960_12020" style="mask-type:luminance" maskUnits="userSpaceOnUse" x="0" y="1" width="24" height="22">
<path d="M0 1H24V22.3333H0V1Z" fill="white"/>
</mask>
<g mask="url(#mask2_16960_12020)">
<path d="M11.4708 11.4632C11.7625 11.7372 12.2375 11.7372 12.5333 11.4632L17.0708 7.23352C18.3875 6.00389 18.3125 3.96685 16.8375 2.83352C15.5542 1.84463 13.6417 2.02241 12.4667 3.1187L12 3.55204L11.5375 3.12241C10.3625 2.02241 8.45 1.84463 7.16667 2.83352C5.69583 3.96685 5.61667 6.00389 6.93333 7.23352L11.4708 11.4632ZM23.5542 14.3373C23.0625 13.941 22.2958 13.9669 21.7792 14.3373L17.9292 17.0743C17.4583 17.4113 16.8708 17.5928 16.2625 17.5928H11.3333C10.9667 17.5928 10.6667 17.3261 10.6667 17.0002C10.6667 16.6743 10.9667 16.4076 11.3333 16.4076H14.5958C15.2583 16.4076 15.875 16.0039 15.9833 15.4224C16.1208 14.6817 15.4792 14.0373 14.6667 14.0373H8C6.875 14.0373 5.7875 14.3817 4.9125 15.0113L2.975 16.4076H0.666667C0.3 16.4076 0 16.6743 0 17.0002V20.5558C0 20.8817 0.3 21.1484 0.666667 21.1484H15.5333C16.1375 21.1484 16.725 20.9669 17.2 20.6298L23.5 16.1484C24.1333 15.7002 24.1833 14.841 23.5542 14.3373Z" fill="#2B4C7E"/>
</g>
</g>
</g>
</svg>
