<svg width="49" height="48" viewBox="0 0 49 48" fill="none" xmlns="http://www.w3.org/2000/svg">
<mask id="mask0_16970_6049" style="mask-type:luminance" maskUnits="userSpaceOnUse" x="0" y="0" width="49" height="48">
<path d="M0.199219 0H48.1992V48H0.199219V0Z" fill="white"/>
</mask>
<g mask="url(#mask0_16970_6049)">
<path d="M3.19922 43.5C3.19922 45.9844 5.21484 48 7.69922 48H40.6992C43.1836 48 45.1992 45.9844 45.1992 43.5V18H3.19922V43.5ZM33.1992 25.125C33.1992 24.5062 33.7054 24 34.3242 24H38.0742C38.693 24 39.1992 24.5062 39.1992 25.125V28.875C39.1992 29.4938 38.693 30 38.0742 30H34.3242C33.7054 30 33.1992 29.4938 33.1992 28.875V25.125ZM33.1992 37.125C33.1992 36.5062 33.7054 36 34.3242 36H38.0742C38.693 36 39.1992 36.5062 39.1992 37.125V40.875C39.1992 41.4938 38.693 42 38.0742 42H34.3242C33.7054 42 33.1992 41.4938 33.1992 40.875V37.125ZM21.1992 25.125C21.1992 24.5062 21.7054 24 22.3242 24H26.0742C26.693 24 27.1992 24.5062 27.1992 25.125V28.875C27.1992 29.4938 26.693 30 26.0742 30H22.3242C21.7054 30 21.1992 29.4938 21.1992 28.875V25.125ZM21.1992 37.125C21.1992 36.5062 21.7054 36 22.3242 36H26.0742C26.693 36 27.1992 36.5062 27.1992 37.125V40.875C27.1992 41.4938 26.693 42 26.0742 42H22.3242C21.7054 42 21.1992 41.4938 21.1992 40.875V37.125ZM9.19922 25.125C9.19922 24.5062 9.70547 24 10.3242 24H14.0742C14.6929 24 15.1992 24.5062 15.1992 25.125V28.875C15.1992 29.4938 14.6929 30 14.0742 30H10.3242C9.70547 30 9.19922 29.4938 9.19922 28.875V25.125ZM9.19922 37.125C9.19922 36.5062 9.70547 36 10.3242 36H14.0742C14.6929 36 15.1992 36.5062 15.1992 37.125V40.875C15.1992 41.4938 14.6929 42 14.0742 42H10.3242C9.70547 42 9.19922 41.4938 9.19922 40.875V37.125ZM40.6992 6H36.1992V1.5C36.1992 0.675 35.5242 0 34.6992 0H31.6992C30.8742 0 30.1992 0.675 30.1992 1.5V6H18.1992V1.5C18.1992 0.675 17.5242 0 16.6992 0H13.6992C12.8742 0 12.1992 0.675 12.1992 1.5V6H7.69922C5.21484 6 3.19922 8.01562 3.19922 10.5V15H45.1992V10.5C45.1992 8.01562 43.1836 6 40.6992 6Z" fill="#0B477B"/>
</g>
</svg>
