<svg width="21" height="36" viewBox="0 0 21 36" fill="none" xmlns="http://www.w3.org/2000/svg">
<path d="M11.5996 15.8C7.05965 14.62 5.59965 13.4 5.59965 11.5C5.59965 9.32 7.61965 7.8 10.9996 7.8C14.5596 7.8 15.8796 9.5 15.9996 12H20.4196C20.2796 8.56 18.1796 5.4 13.9996 4.38V0H7.99965V4.32C4.11965 5.16 0.999649 7.68 0.999649 11.54C0.999649 16.16 4.81965 18.46 10.3996 19.8C15.3996 21 16.3996 22.76 16.3996 24.62C16.3996 26 15.4196 28.2 10.9996 28.2C6.87965 28.2 5.25965 26.36 5.03965 24H0.639648C0.879648 28.38 4.15965 30.84 7.99965 31.66V36H13.9996V31.7C17.8996 30.96 20.9996 28.7 20.9996 24.6C20.9996 18.92 16.1396 16.98 11.5996 15.8Z" fill="#0B477B"/>
</svg>
