<svg width="20" height="24" viewBox="0 0 20 24" fill="none" xmlns="http://www.w3.org/2000/svg">
<path d="M9.99955 0.0419922C7.3535 0.0449033 4.81663 1.09727 2.94549 2.96822C1.07435 4.83918 0.0217309 7.37593 0.0185547 10.022C0.0185547 12.592 2.00855 16.614 5.93355 21.976C6.40081 22.6161 7.01261 23.1369 7.71916 23.4959C8.4257 23.8549 9.20703 24.042 9.99955 24.042C10.7921 24.042 11.5734 23.8549 12.28 23.4959C12.9865 23.1369 13.5983 22.6161 14.0656 21.976C17.9906 16.614 19.9806 12.592 19.9806 10.022C19.9774 7.37593 18.9248 4.83918 17.0536 2.96822C15.1825 1.09727 12.6456 0.0449033 9.99955 0.0419922ZM9.99955 14C9.20843 14 8.43507 13.7654 7.77727 13.3259C7.11948 12.8863 6.60679 12.2616 6.30404 11.5307C6.00129 10.7998 5.92207 9.99556 6.07641 9.21963C6.23075 8.44371 6.61172 7.73098 7.17113 7.17157C7.73054 6.61216 8.44327 6.23119 9.21919 6.07685C9.99512 5.92251 10.7994 6.00172 11.5303 6.30448C12.2612 6.60723 12.8859 7.11992 13.3254 7.77771C13.765 8.43551 13.9996 9.20887 13.9996 9.99999C13.9996 11.0609 13.5781 12.0783 12.828 12.8284C12.0778 13.5786 11.0604 14 9.99955 14Z" fill="#0B477B"/>
</svg>
